<svg width="24" height="25" viewBox="0 0 24 25" fill="none" xmlns="http://www.w3.org/2000/svg">
<g clip-path="url(#clip0_159_1404)">
<path d="M8.2502 23.5964V18.4214L4.3877 21.2714C5.4752 22.2839 6.7877 23.0714 8.2502 23.5964Z" fill="#2A5F9E"/>
<path d="M15.75 23.5963C17.2125 23.0713 18.525 22.2838 19.6125 21.2713L15.75 18.3838V23.5963Z" fill="#2A5F9E"/>
<path d="M1.3877 16.7339C1.5002 17.1089 1.6502 17.4464 1.8377 17.8214L3.3002 16.7339H1.3877Z" fill="#2A5F9E"/>
<path d="M20.7002 16.7339L22.1627 17.8214C22.3127 17.4839 22.4627 17.1089 22.6127 16.7339H20.7002Z" fill="#2A5F9E"/>
<path d="M8.8126 15.2339H0.975098C1.0876 15.7589 1.2376 16.2464 1.3876 16.7339H3.3001L1.8376 17.8214C2.1376 18.4589 2.4751 19.0214 2.8876 19.5839L6.7501 16.7339H8.2501V17.4839L3.8626 20.7089L4.3876 21.2339L8.2501 18.4214V23.5964C8.7376 23.7839 9.2251 23.8964 9.7501 24.0089V15.2339H8.8126Z" fill="white"/>
<path d="M23.025 15.2339H14.25V24.0089C14.775 23.8964 15.2625 23.7464 15.75 23.5964V18.4214L19.6125 21.2339C20.1375 20.7464 20.5875 20.2214 21.0375 19.6589L17.025 16.7339H19.575L21.8625 18.4214C21.975 18.2339 22.0875 18.0089 22.1625 17.8214L20.7 16.7339H22.6125C22.7625 16.2464 22.9125 15.7589 23.025 15.2339Z" fill="white"/>
<path d="M2.8877 19.584C3.1877 19.9965 3.4877 20.3715 3.8252 20.7465L8.2502 17.5215V16.7715H6.7502L2.8877 19.584Z" fill="#ED4C5C"/>
<path d="M17.0625 16.7339L21.075 19.6589C21.225 19.4714 21.3375 19.2839 21.4875 19.0964C21.525 19.0589 21.525 19.0214 21.5625 19.0214C21.675 18.8339 21.825 18.6089 21.9375 18.4214L19.575 16.7339H17.0625Z" fill="#ED4C5C"/>
<path d="M15.75 2.37109V7.54609L19.6125 4.69609C18.525 3.68359 17.2125 2.89609 15.75 2.37109Z" fill="#2A5F9E"/>
<path d="M8.2502 2.37109C6.7877 2.89609 5.4752 3.68359 4.3877 4.69609L8.2502 7.58359V2.37109Z" fill="#2A5F9E"/>
<path d="M22.6127 9.2335C22.5002 8.8585 22.3502 8.521 22.1627 8.146L20.7002 9.2335H22.6127Z" fill="#2A5F9E"/>
<path d="M3.3002 9.2335L1.8377 8.146C1.6877 8.521 1.5377 8.8585 1.3877 9.2335H3.3002Z" fill="#2A5F9E"/>
<path d="M15.1875 10.734H22.9875C22.875 10.209 22.725 9.72148 22.575 9.23398H20.6625L22.125 8.14648C21.825 7.50898 21.4875 6.94648 21.075 6.38398L17.25 9.23398H15.75V8.48398L20.1375 5.25898L19.6125 4.73398L15.75 7.54648V2.37148C15.2625 2.18398 14.775 2.07148 14.25 1.95898V10.734H15.1875Z" fill="white"/>
<path d="M0.975098 10.734H9.7501V1.95898C9.2251 2.07148 8.7376 2.22148 8.2501 2.37148V7.54648L4.3876 4.73398C3.8626 5.22148 3.4126 5.74648 2.9626 6.30898L6.9751 9.23398H4.4251L2.1376 7.54648C2.0251 7.73398 1.9126 7.95898 1.8376 8.14648L3.3001 9.23398H1.3876C1.2376 9.72148 1.0876 10.209 0.975098 10.734Z" fill="white"/>
<path d="M21.1125 6.38418C20.8125 5.97168 20.5125 5.59668 20.175 5.22168L15.75 8.44668V9.19668H17.25L21.1125 6.38418Z" fill="#ED4C5C"/>
<path d="M6.9376 9.23359L2.9626 6.30859C2.8126 6.49609 2.7001 6.68359 2.5501 6.87109C2.5126 6.90859 2.5126 6.94609 2.4751 6.94609C2.3626 7.13359 2.2126 7.35859 2.1001 7.54609L4.3876 9.23359H6.9376Z" fill="#ED4C5C"/>
<path d="M23.025 10.7339H14.25V1.95889C13.5375 1.80889 12.7875 1.73389 12 1.73389C11.2125 1.73389 10.4625 1.80889 9.75 1.95889V10.7339H0.975C0.825 11.4464 0.75 12.1964 0.75 12.9839C0.75 13.7714 0.825 14.5214 0.975 15.2339H9.75V24.0089C10.4625 24.1589 11.2125 24.2339 12 24.2339C12.7875 24.2339 13.5375 24.1589 14.25 24.0089V15.2339H23.025C23.175 14.5214 23.25 13.7714 23.25 12.9839C23.25 12.1964 23.175 11.4464 23.025 10.7339Z" fill="#ED4C5C"/>
</g>
<defs>
<clipPath id="clip0_159_1404">
<rect width="24" height="24" fill="white" transform="translate(0 0.983887)"/>
</clipPath>
</defs>
</svg>
