<svg width="230" height="48" viewBox="0 0 230 48" fill="none" xmlns="http://www.w3.org/2000/svg">
    <path
        d="M41.9266 47.2484V12.4747H41.6918L27.1586 47.2484H21.6145L7.0483 12.4747H6.81348V47.2484H0V0H8.65169L24.2527 37.6542H24.5205L40.0884 0H48.7732V47.2484H41.9266ZM55.3885 37.4564C55.3885 31.433 60.0996 27.7327 68.4504 27.2724L78.0708 26.715V24.0611C78.0708 20.2313 75.4327 17.937 71.0225 17.937C66.847 17.937 64.242 19.9005 63.6072 22.9787H56.7938C57.1937 16.7575 62.6056 12.1726 71.294 12.1726C79.8136 12.1726 85.2585 16.5921 85.2585 23.5001V47.2376H78.3423V41.5739H78.1735C76.1372 45.4037 71.6939 47.8274 67.0819 47.8274C60.1987 47.8346 55.3885 43.6452 55.3885 37.4564ZM78.0708 34.3458V31.6272L69.4191 32.1523C65.1079 32.4471 62.6716 34.3135 62.6716 37.2586C62.6716 40.2721 65.2106 42.2355 69.0852 42.2355C74.1265 42.2391 78.0708 38.8337 78.0708 34.3458ZM115.517 24.6544C114.784 20.9865 111.977 18.0737 107.266 18.0737C101.685 18.0737 98.0122 22.6263 98.0122 30.0234C98.0122 37.5859 101.722 41.973 107.332 41.973C111.775 41.973 114.681 39.5817 115.517 35.5901H122.467C121.7 42.926 115.719 47.9029 107.266 47.9029C97.2087 47.9029 90.663 41.1567 90.663 30.027C90.663 19.0914 97.2123 12.1834 107.2 12.1834C116.251 12.1834 121.766 17.8795 122.401 24.658H115.517V24.6544ZM128.011 47.2484V0H148.99C158.042 0 163.722 4.55258 163.722 11.7878C163.722 16.9625 159.781 21.2814 154.67 22.0365V22.299C161.219 22.7917 166.03 27.4738 166.03 33.7273C166.03 42.045 159.649 47.2484 149.361 47.2484H128.011ZM138.101 19.6452H145.351C150.73 19.6452 153.804 17.3221 153.804 13.3269C153.804 9.5295 151.096 7.36828 146.389 7.36828H138.104V19.6452H138.101ZM146.785 39.8801C152.597 39.8801 155.738 37.4564 155.738 32.9398C155.738 28.5203 152.498 26.1612 146.55 26.1612H138.097V39.8801H146.785ZM170.935 12.1474H180.357V18.4657H180.559C181.829 14.0138 184.87 11.59 189.079 11.59C190.216 11.59 191.185 11.7555 191.853 11.9496V20.3644C191.049 20.0371 189.714 19.807 188.312 19.807C183.502 19.807 180.695 22.6874 180.695 27.632V47.2448H170.939V12.1474H170.935ZM194.52 29.6638C194.52 18.3038 201.535 11.3923 212.26 11.3923C222.985 11.3923 230 18.2679 230 29.6638C230 41.2215 223.084 48 212.26 48C201.436 48 194.52 41.1891 194.52 29.6638ZM220.079 29.6962C220.079 22.7234 217.004 18.6958 212.26 18.6958C207.516 18.6958 204.408 22.7234 204.408 29.6962C204.408 36.7372 207.45 40.6964 212.26 40.6964C217.037 40.7 220.079 36.7372 220.079 29.6962Z"
        fill="#ADABAE" />
</svg>
